<svg width="50" height="50" viewBox="0 0 50 50" fill="none" xmlns="http://www.w3.org/2000/svg">
<path d="M24.9297 2.00196C24.8199 2.00246 24.7091 2.02065 24.6036 2.05665L3.67193 9.34181C3.22793 9.49581 2.94986 9.93926 3.00786 10.4063L6.31646 37.5293C6.35546 37.8503 6.54513 38.1331 6.83013 38.2871L24.4786 47.8789C24.6266 47.9599 24.7911 48 24.9551 48C25.1201 48 25.2866 47.959 25.4356 47.877L43.1739 38.1543C43.4559 37.9993 43.6476 37.7174 43.6856 37.3984L46.9922 10.2774C47.0502 9.80835 46.7694 9.361 46.3204 9.209L25.254 2.05275C25.149 2.01775 25.0396 2.00146 24.9297 2.00196ZM25.0001 7.00001L38.0001 35H33.5626L30.7813 29.0078H19.2188L16.4376 35H12.0001L25.0001 7.00001ZM25.0001 16.5L21.0801 25H28.92L25.0001 16.5Z" fill="black"/>
</svg>
