<svg width="50" height="50" viewBox="0 0 50 50" fill="none" xmlns="http://www.w3.org/2000/svg">
<path d="M31.8374 3.69717C32.2175 4.16865 32.4113 4.80498 32.7972 6.07607L41.2566 33.8636C38.0795 32.2141 34.6691 31.0595 31.1433 30.4397L25.6363 11.828C25.5928 11.6792 25.5022 11.5486 25.3781 11.4557C25.2541 11.3628 25.1032 11.3127 24.9482 11.3128C24.7932 11.313 24.6424 11.3635 24.5186 11.4567C24.3947 11.5499 24.3044 11.6807 24.2613 11.8296L18.8203 30.4304C15.2792 31.0479 11.8537 32.2043 8.66284 33.8593L17.1621 6.07021C17.5511 4.80068 17.7449 4.16553 18.1246 3.69404C18.4599 3.27874 18.896 2.95625 19.3914 2.75732C19.9511 2.53271 20.6164 2.53271 21.9441 2.53271H28.0156C29.3445 2.53271 30.0097 2.53271 30.5714 2.75889C31.0668 2.95831 31.5024 3.28134 31.8374 3.69717ZM32.8492 35.1854C31.4546 36.3784 28.671 37.1917 25.4652 37.1917C21.5316 37.1917 18.2328 35.9663 17.3582 34.3183C17.0457 35.2628 16.9753 36.3433 16.9753 37.0347C16.9753 37.0347 16.7695 40.4233 19.1269 42.7808C19.1269 42.4898 19.1841 42.2017 19.2955 41.9329C19.4068 41.6641 19.57 41.4198 19.7758 41.2141C19.9815 41.0084 20.2258 40.8452 20.4946 40.7339C20.7634 40.6226 21.0516 40.5654 21.3425 40.5655C23.4402 40.5655 23.439 42.3948 23.4374 43.8812V44.0124C23.4374 46.2675 24.8152 48.1995 26.7746 49.0144C26.4723 48.3941 26.3157 47.7129 26.3167 47.0229C26.3167 44.8714 27.5785 44.0718 29.0464 43.1409C30.214 42.4011 31.5109 41.5784 32.4035 39.9292C32.8854 39.0406 33.1372 38.0455 33.1359 37.0347C33.1361 36.407 33.0394 35.7835 32.8492 35.1854Z" fill="black"/>
</svg>
