<svg width="50" height="50" viewBox="0 0 50 50" fill="none" xmlns="http://www.w3.org/2000/svg">
<path d="M42.5714 5.62542C42.2513 5.22725 41.7947 5 41.3161 5H8.68497C8.20644 5 7.74981 5.22725 7.42967 5.62542C7.10953 6.02358 6.95788 6.55509 7.01011 7.08472L10.7204 44.3149C10.7946 45.0718 11.2748 45.7047 11.9319 45.9132L24.5355 49.9268C24.6871 49.9756 24.8438 50 24.9989 50C25.1539 50 25.3106 49.9756 25.4622 49.9268L38.0658 45.9132C38.723 45.7047 39.2015 45.0718 39.2773 44.3149L42.9893 7.08472C43.0432 6.55509 42.8916 6.02358 42.5714 5.62542ZM34.2949 23.9203L33.5434 37.6025L25.0545 40.6957L16.5656 37.6025L16.2438 31.0591H20.5404L20.6483 34.034L25.0545 35.6999L29.4607 34.034L29.7825 28.6813H20.3264L20.1125 23.9222H29.9982L30.32 19.163H15.4906L15.1687 14.4019H34.8324L34.2949 23.9203Z" fill="black"/>
</svg>
