<svg width="50" height="50" viewBox="0 0 50 50" fill="none" xmlns="http://www.w3.org/2000/svg">
<path d="M24.6844 39.125H25.9136C26.7886 39.125 27.6126 38.7166 28.1417 38.0198L35.9386 27.7625L43.7355 38.0198C44.2647 38.7156 45.0886 39.125 45.9636 39.125H47.1928L37.2459 26.0416L46.7469 13.5416H45.5178C44.6428 13.5416 43.8188 13.95 43.2897 14.6468L35.9376 24.3198L28.5844 14.6458C28.0553 13.95 27.2313 13.5416 26.3563 13.5416H25.1272L34.6282 26.0416L24.6844 39.125Z" fill="black"/>
<path d="M25.0002 27.0834V23.9584C25.0002 17.0052 18.8075 11.499 11.6366 12.6542C6.05433 13.5532 2.0835 18.6011 2.0835 24.2542V25V27.0834V27.2313C2.0835 34.0573 7.05954 39.5084 13.4043 39.5834C18.7085 39.6459 23.1845 36.1 24.5575 31.2511H23.4866C22.8408 31.2511 22.2554 31.6209 21.9752 32.2021C20.1637 35.9469 15.945 38.3084 11.321 37.2459C7.0585 36.2657 4.16683 32.2719 4.16683 27.899V27.0834H25.0002ZM4.16683 24.6979C4.16683 19.7938 7.08766 15.7844 11.3793 14.825C17.4981 13.4584 22.9168 18.075 22.9168 23.9584V25H4.16683V24.6979Z" fill="black"/>
</svg>
