<svg width="50" height="50" viewBox="0 0 50 50" fill="none" xmlns="http://www.w3.org/2000/svg">
<g clip-path="url(#clip0_32_149)">
<path d="M29.4395 0.0979004C29.0791 0.0979004 28.7437 0.174984 28.4333 0.27915C29.0916 0.71665 29.4541 1.29998 29.6333 1.95832C29.6479 2.0479 29.6729 2.11248 29.6854 2.20207C29.7008 2.27896 29.7099 2.35701 29.7125 2.4354C29.7625 3.57082 29.4145 3.71457 29.1708 4.3854C28.7958 5.24998 28.9 6.17915 29.35 6.92707C29.3912 7.02736 29.4428 7.12303 29.5041 7.21248C29.0145 3.94582 31.7395 3.45623 32.2416 2.4354C32.2812 1.54373 31.5458 0.949984 30.9645 0.537484C30.5078 0.250461 29.979 0.0987665 29.4395 0.0999837V0.0979004ZM33.5458 0.833317C33.4958 1.13123 33.5333 1.05415 33.5208 1.20832C33.5083 1.31248 33.5083 1.44165 33.4958 1.54373C33.4687 1.6479 33.4437 1.75207 33.4041 1.85415C33.3791 1.95832 33.3416 2.06248 33.3 2.16457L33.1604 2.4604C33.1187 2.51248 33.0958 2.56457 33.0562 2.61665L32.9791 2.73123C32.9177 2.81964 32.853 2.90581 32.7854 2.98957C32.7083 3.06873 32.6437 3.15832 32.552 3.2229V3.2354C32.475 3.29998 32.3979 3.37707 32.3062 3.44373C32.0354 3.64998 31.727 3.80415 31.4416 3.9979C31.352 4.0604 31.2604 4.11457 31.1833 4.19165C31.0956 4.2533 31.0134 4.3223 30.9375 4.3979C30.8479 4.47498 30.7833 4.55207 30.7062 4.64373C30.6416 4.72082 30.5645 4.8104 30.5125 4.90207C30.4476 4.9893 30.3871 5.07969 30.3312 5.1729C30.2791 5.27707 30.2416 5.36665 30.1895 5.46873C30.15 5.5729 30.1125 5.66248 30.0854 5.76665C30.0512 5.87305 30.0213 5.98077 29.9958 6.08957C29.9833 6.14165 29.9833 6.20623 29.9708 6.25623C29.9562 6.30832 29.9562 6.3604 29.9437 6.41248C29.9437 6.51665 29.9312 6.63123 29.9312 6.7354C29.9312 6.81248 29.9312 6.88957 29.9437 6.96665C29.9437 7.07082 29.9562 7.17498 29.9833 7.28957C29.9958 7.39373 30.0208 7.4979 30.0458 7.60207C30.0875 7.70415 30.1125 7.80623 30.15 7.9104C30.177 7.9729 30.2145 8.03957 30.2416 8.09165L27.2708 6.94165C26.7687 6.79998 26.277 6.67082 25.7729 6.55415L24.9604 6.3604C24.1854 6.20623 23.3979 6.08957 22.6104 6.01248C22.5833 6.01248 22.5708 5.99998 22.5458 5.99998C21.2151 5.86668 19.8753 5.84926 18.5416 5.9479C17.7541 5.99998 16.9666 6.10207 16.1791 6.23123C15.5939 6.33207 15.0123 6.45297 14.4354 6.59373L13.8541 6.7479C13.6625 6.82498 13.4791 6.91457 13.3 6.99373L12.8729 7.18748C12.8479 7.19998 12.8229 7.19998 12.8104 7.21248C12.6791 7.27707 12.5645 7.32915 12.4479 7.39373C12.2801 7.46773 12.116 7.54977 11.9562 7.63957C11.8666 7.67707 11.777 7.72915 11.6979 7.76873C11.6609 7.79169 11.6226 7.81256 11.5833 7.83123C11.4666 7.8979 11.35 7.96248 11.2458 8.02707C11.1395 8.08584 11.0365 8.15052 10.9375 8.22082C10.8458 8.28332 10.7562 8.3354 10.6791 8.39998C10.6666 8.41457 10.652 8.41457 10.6395 8.42707C10.5625 8.47915 10.4729 8.54373 10.3937 8.60832L10.3687 8.63332L10.175 8.78748C10.15 8.80207 10.1229 8.82707 10.0979 8.83957C10.0333 8.89165 9.96871 8.95623 9.90412 9.00623C9.89162 9.03332 9.86454 9.0479 9.85204 9.05832C9.77496 9.13748 9.69787 9.20207 9.62079 9.27915C9.60621 9.27915 9.60621 9.29165 9.59371 9.30415C9.51341 9.37433 9.43626 9.44801 9.36245 9.52498C9.34787 9.53748 9.34787 9.54998 9.33537 9.54998C9.26756 9.61636 9.20291 9.68588 9.14162 9.75832C9.11662 9.78332 9.07912 9.80832 9.05204 9.83332C8.98285 9.91517 8.90913 9.99307 8.8312 10.0666C8.8187 10.0916 8.79371 10.1062 8.78121 10.1292C8.67704 10.2333 8.58746 10.3375 8.48329 10.4417L8.44579 10.4792C8.23745 10.7 8.01871 10.9187 7.78537 11.1125C7.55412 11.3208 7.30829 11.5125 7.06246 11.6812C6.56886 12.0338 6.03616 12.3281 5.47496 12.5583C5.20412 12.675 4.91871 12.7792 4.63537 12.8687C4.09371 12.9854 3.53746 13.2041 3.06037 13.2437C2.95621 13.2437 2.84162 13.2687 2.73746 13.2812L2.41454 13.3583L2.10412 13.475C1.99996 13.5146 1.89787 13.5666 1.79579 13.6166C1.70412 13.6812 1.60204 13.7333 1.51037 13.7979C1.41845 13.8644 1.33206 13.9383 1.25204 14.0187C1.16246 14.0812 1.07079 14.1729 0.993706 14.25C0.916622 14.3396 0.839539 14.4167 0.774956 14.5083C0.710373 14.6125 0.633289 14.7021 0.581206 14.8062C0.513347 14.9001 0.452754 14.999 0.399956 15.1021C0.347872 15.2187 0.295789 15.3229 0.258289 15.4375C0.218706 15.5416 0.181206 15.6583 0.141623 15.7729C0.116623 15.8771 0.0895392 15.9812 0.0791225 16.0854C0.0791225 16.0958 0.0645392 16.1104 0.0645392 16.1229C0.0395392 16.2396 0.0395392 16.3937 0.0249558 16.4708C0.0124558 16.5625 -4.41657e-05 16.6375 -4.41657e-05 16.7291C-0.00244108 16.9538 0.0505056 17.1756 0.154122 17.375V17.3875C0.193706 17.4646 0.245789 17.5437 0.297872 17.6208C0.347872 17.6979 0.402039 17.775 0.464539 17.8521C0.529122 17.9167 0.606206 17.9958 0.685372 18.0604C0.760651 18.1359 0.842193 18.2049 0.929123 18.2666C1.23954 18.5375 1.31662 18.6271 1.71662 18.8333C1.78121 18.8729 1.84579 18.8979 1.92496 18.9375C1.93746 18.9375 1.94996 18.95 1.96246 18.95C1.96246 18.9771 1.96246 18.9896 1.97496 19.0146C2.00511 19.2275 2.06108 19.436 2.14162 19.6354C2.18329 19.7125 2.20829 19.7896 2.24579 19.8667C2.26037 19.8937 2.27287 19.9187 2.28746 19.9312C2.33746 20.0354 2.38954 20.125 2.43954 20.2167L2.63329 20.4875C2.69787 20.5646 2.77704 20.6541 2.85412 20.7333C2.93121 20.8104 3.00829 20.875 3.09996 20.9521C3.09996 20.9521 3.11246 20.9646 3.12496 20.9646C3.20204 21.0291 3.27912 21.0937 3.35829 21.1458C3.44813 21.2089 3.54288 21.2646 3.64162 21.3125C3.73121 21.3646 3.83537 21.4166 3.93746 21.4562C4.0207 21.4938 4.10716 21.5238 4.19579 21.5458C4.21037 21.5583 4.22287 21.5583 4.24787 21.5708C4.29996 21.5854 4.36454 21.5979 4.41454 21.6104C4.37704 22.3083 4.36454 22.9646 4.46871 23.1979C4.58329 23.4562 5.15204 22.6687 5.71871 21.7646C5.64371 22.6562 5.59162 23.7021 5.71871 24.0125C5.86246 24.3354 6.63537 23.3271 7.30829 22.2166C16.4645 20.1 24.8187 26.425 25.6958 35.3625C25.5291 33.9666 23.8104 33.1937 23.0229 33.3875C22.6354 34.3416 21.977 35.5687 20.9187 36.3312C21.0083 35.4771 20.9708 34.6021 20.7895 33.7479C20.5003 34.9369 19.9534 36.0478 19.1875 37.0021C17.9625 37.0916 16.7354 36.4979 16.0895 35.6062C16.0375 35.5687 16.025 35.4916 15.9854 35.4396C15.9479 35.35 15.9083 35.2583 15.8812 35.1687C15.8437 35.0822 15.8178 34.9912 15.8041 34.8979C15.7916 34.8062 15.7916 34.7166 15.7916 34.6125V34.4187C15.807 34.3271 15.8286 34.2366 15.8562 34.1479C15.8833 34.0583 15.9083 33.9687 15.9479 33.8771C15.9979 33.7875 16.0375 33.6958 16.102 33.6062C16.3208 32.9854 16.3208 32.4812 15.9208 32.1854C15.8431 32.1347 15.7608 32.0914 15.675 32.0562C15.625 32.0437 15.5604 32.0187 15.5083 32.0042L15.4041 31.9666C15.3157 31.938 15.2251 31.9164 15.1333 31.9021C15.0453 31.8763 14.9541 31.863 14.8625 31.8625C14.7687 31.8478 14.674 31.8394 14.5791 31.8375C14.5145 31.8375 14.45 31.85 14.3854 31.85C14.2888 31.8494 14.1927 31.8628 14.1 31.8896C14.0104 31.9021 13.9208 31.9146 13.8291 31.9396C13.737 31.9643 13.6465 31.9949 13.5583 32.0312C13.4687 32.0687 13.3916 32.1083 13.3 32.1479C13.2229 32.1854 13.1458 32.2375 13.0541 32.2771C10.0458 34.2396 11.8416 38.8354 13.8937 40.1666C13.1187 40.3083 12.3312 40.475 12.1125 40.6437L12.0854 40.6687C12.6416 41.0041 13.2229 41.2896 13.8291 41.5354C14.6562 41.8062 15.5333 42.05 15.9208 42.1541V42.1666C16.9906 42.3864 18.0847 42.4648 19.175 42.4C24.8958 42 29.5833 37.6479 30.4354 31.9146L30.5125 32.25C30.552 32.4833 30.602 32.7291 30.6291 32.9729V32.9854C30.6541 33.1021 30.6666 33.2187 30.6812 33.3229V33.3729C30.6937 33.4896 30.7062 33.6062 30.7062 33.7104C30.7187 33.8521 30.7312 33.9937 30.7312 34.1354V34.3437C30.7312 34.4062 30.7458 34.4833 30.7458 34.5479C30.7458 34.6271 30.7312 34.7041 30.7312 34.7812V34.9625C30.7312 35.0521 30.7187 35.1291 30.7187 35.2208C30.7187 35.2729 30.7187 35.325 30.7062 35.3875C30.7062 35.4791 30.6937 35.5687 30.6937 35.6729C30.6812 35.7104 30.6812 35.75 30.6812 35.7875L30.6395 36.0854C30.6395 36.125 30.6395 36.1625 30.6291 36.2021C30.6145 36.3312 30.5895 36.4479 30.577 36.5771V36.6021L30.5 36.9646V37.0021L30.4229 37.35C30.4229 37.3646 30.4083 37.3916 30.4083 37.4021C30.3845 37.5202 30.3546 37.637 30.3187 37.7521V37.7896C30.2791 37.9187 30.2416 38.0354 30.2145 38.1521C30.202 38.1646 30.202 38.1771 30.202 38.1771L30.0854 38.5646C30.0354 38.6937 29.9958 38.8104 29.9437 38.9396C29.8916 39.0687 29.8541 39.1979 29.802 39.3146C29.75 39.4437 29.6979 39.5583 29.6479 39.6896H29.6333C29.5833 39.8041 29.5291 39.9333 29.4666 40.05C29.4558 40.0808 29.4425 40.1108 29.427 40.1396C29.4145 40.1521 29.4145 40.1666 29.402 40.1791C28.548 41.8888 27.305 43.3744 25.7729 44.5166C25.6687 44.5812 25.5666 44.6604 25.4625 44.7375C25.4375 44.7625 25.4 44.775 25.3729 44.8C25.2805 44.8682 25.186 44.9336 25.0895 44.9958L25.127 45.0729H25.1416L25.6833 44.9958H25.6958C26.0312 44.9437 26.3666 44.8791 26.702 44.8146C26.7937 44.8021 26.8958 44.775 26.9875 44.75L27.1687 44.7104C27.2583 44.6979 27.3479 44.6729 27.4395 44.6604C27.5166 44.6333 27.5937 44.6187 27.6708 44.5958C28.9625 44.2833 30.2145 43.8583 31.4166 43.3562C29.3413 46.183 26.5812 48.4355 23.3958 49.9021C24.8833 49.7979 26.3666 49.5541 27.8 49.1396C32.9879 47.6143 37.3696 44.1131 40.002 39.3896C39.4704 42.3797 38.2844 45.2154 36.5291 47.6937C37.7806 46.8682 38.937 45.9068 39.977 44.8271C42.8674 41.8096 44.7649 37.9797 45.4145 33.8521C45.852 35.8937 45.9812 37.9979 45.7895 40.075C55.1104 27.0729 46.5625 13.5917 42.9854 10.0417C42.9729 10.0146 42.9604 10.0021 42.9604 9.97707C42.9479 9.98957 42.9479 9.98957 42.9479 10.0021C42.9479 9.98957 42.9479 9.98957 42.9333 9.97707C42.9333 10.1312 42.9208 10.2854 42.9083 10.4417C42.8725 10.7309 42.8294 11.0192 42.7791 11.3062C42.7166 11.5896 42.6375 11.875 42.5604 12.1604C42.4687 12.4312 42.3666 12.7146 42.2479 12.9854C42.1298 13.2529 42.0013 13.5156 41.8625 13.7729C41.5742 14.2791 41.2416 14.7587 40.8687 15.2062C40.675 15.4375 40.4687 15.6437 40.2604 15.8521C40.1386 15.9634 40.0135 16.0711 39.8854 16.175L39.5895 16.4333C39.359 16.6153 39.1176 16.7829 38.8666 16.9354C38.6198 17.0943 38.3653 17.2411 38.1041 17.375C37.8333 17.5042 37.5625 17.6208 37.2916 17.7375C36.74 17.9473 36.1692 18.1029 35.5875 18.2021C35.2895 18.2542 34.9937 18.2791 34.7083 18.3062C34.5023 18.3208 34.296 18.3291 34.0895 18.3312C33.7958 18.3272 33.5025 18.3098 33.2104 18.2792C32.9154 18.256 32.6224 18.2128 32.3333 18.15C32.0404 18.0968 31.7516 18.0238 31.4687 17.9312H31.4541C31.7395 17.9042 32.0229 17.8792 32.3083 17.8271C32.8897 17.7263 33.4603 17.5707 34.0125 17.3625C34.2958 17.2583 34.5666 17.1291 34.825 17C35.0958 16.8708 35.3416 16.7291 35.6 16.575C35.8458 16.4083 36.0895 16.2396 36.3229 16.0583C36.5562 15.8771 36.775 15.6833 36.9812 15.4771C37.2 15.2833 37.3937 15.0646 37.5875 14.8437C37.7812 14.6125 37.9625 14.3791 38.1291 14.1479C38.1562 14.1083 38.1833 14.0562 38.2083 14.0187C38.3375 13.8104 38.4666 13.6042 38.5833 13.3979C38.868 12.884 39.101 12.3432 39.2791 11.7833C39.3708 11.5125 39.4354 11.2291 39.5 10.9437C39.552 10.6479 39.6041 10.3646 39.6291 10.0791C39.6541 9.78332 39.6812 9.4854 39.6812 9.20207C39.6812 8.99373 39.6666 8.78748 39.6541 8.58123C39.6284 8.29203 39.5936 8.0037 39.55 7.71665C39.4997 7.42559 39.4358 7.13708 39.3583 6.85207C39.2666 6.58123 39.177 6.29582 39.0729 6.02498C38.9687 5.75415 38.8416 5.48332 38.7125 5.22498C38.5687 4.96665 38.427 4.70832 38.2729 4.46248C38.108 4.22113 37.9356 3.98491 37.7562 3.75415C37.5625 3.53332 37.3687 3.31248 37.1625 3.09373C37.0538 2.98289 36.9419 2.87521 36.827 2.77082C36.2437 2.31873 35.6395 1.89373 35.0312 1.50623C34.9478 1.45804 34.8615 1.41491 34.7729 1.37707C34.3899 1.14255 33.9772 0.958296 33.5458 0.833317Z" fill="black"/>
</g>
<defs>
<clipPath id="clip0_32_149">
<rect width="50" height="50" fill="white"/>
</clipPath>
</defs>
</svg>
