<svg width="50" height="50" viewBox="0 0 50 50" fill="none" xmlns="http://www.w3.org/2000/svg">
<g clip-path="url(#clip0_32_153)">
<path d="M24.5626 0.541626C20.5417 2.60413 16.5417 4.68746 12.5001 6.72913C9.10424 8.45829 5.72924 10.2083 2.31257 11.9166C1.74376 12.0934 1.25126 12.457 0.914771 12.9485C0.578278 13.44 0.417481 14.0307 0.458402 14.625C0.541735 21.7083 0.541735 28.7208 0.458402 35.6666C0.427258 36.2594 0.594764 36.8456 0.93439 37.3324C1.27402 37.8192 1.76635 38.1787 2.3334 38.3541C9.29174 41.75 16.2292 45.2708 23.1667 48.7708C23.6667 49.0208 24.1042 49.3333 24.5834 49.625H25.4584C27.4376 48.5625 29.3334 47.5 31.4167 46.4791C36.8334 43.7291 42.2501 40.9791 47.7292 38.2916C48.3254 38.0999 48.8382 37.7104 49.1829 37.1876C49.5276 36.6649 49.6836 36.0401 49.6251 35.4166C49.6251 28.7291 49.5001 22.0208 49.6251 15.3333C49.7092 14.5211 49.5134 13.7045 49.0702 13.0188C48.6269 12.333 47.9627 11.8192 47.1876 11.5625C40.2917 8.33329 33.5001 4.72913 26.6667 1.29163C26.2425 1.06628 25.832 0.815838 25.4376 0.541626H24.5626ZM13.4167 12.6458C14.4074 12.543 15.4083 12.6784 16.336 13.0408C17.2637 13.4032 18.0914 13.982 18.7501 14.7291C22.9167 19 26.9167 23.2083 31.1251 27.4375C31.2239 27.5196 31.3369 27.5831 31.4584 27.625C31.4584 23.8125 31.4376 20 31.4792 16.2708C31.4758 15.7854 31.5902 15.3064 31.8126 14.875C31.8694 14.7443 31.9736 14.6401 32.1042 14.5833L32.3751 14.4583L32.5626 14.3125C33.0001 13.9583 33.3126 13.75 33.7292 13.3958C34.1847 13.0368 34.7254 12.802 35.2987 12.7144C35.872 12.6268 36.4582 12.6893 37.0001 12.8958C37.4978 13.0065 37.9507 13.2644 38.3 13.636C38.6492 14.0075 38.8786 14.4755 38.9584 14.9791C39 15.4852 39 15.9939 38.9584 16.5C38.9584 22.1041 38.7501 27.7291 38.9584 33.3333C39.0417 35.5833 37.7501 36.625 35.8959 37.5C35.4319 37.6705 34.9224 37.6705 34.4584 37.5C32.4451 36.6982 30.6215 35.4848 29.1042 33.9375C27.3334 31.7708 25.1459 29.9791 23.1667 27.8958C22.2084 26.9375 21.3751 25.8333 20.4167 24.8541C19.7292 24.1875 18.9792 23.5833 18.2292 22.9583C18.1933 22.9289 18.1508 22.9085 18.1053 22.8988C18.0598 22.8891 18.0127 22.8905 17.9679 22.9027C17.923 22.9149 17.8817 22.9377 17.8475 22.9691C17.8132 23.0005 17.787 23.0397 17.7709 23.0833V33.7708C17.708 34.3 17.5749 34.8184 17.3751 35.3125V35.4166L16.9376 35.8958L16.0417 36.4375C15.1647 37.0115 14.151 37.3422 13.1042 37.3958C11.4167 37.2083 10.4167 34.6458 10.4167 34.2708V15.5208C10.4167 13.8541 11.5834 12.8125 13.4167 12.6458Z" fill="black"/>
</g>
<defs>
<clipPath id="clip0_32_153">
<rect width="50" height="50" fill="white"/>
</clipPath>
</defs>
</svg>
