<svg width="50" height="50" viewBox="0 0 50 50" fill="none" xmlns="http://www.w3.org/2000/svg">
<g clip-path="url(#clip0_32_155)">
<path d="M24.9878 0C24.2274 0 23.4671 0.172176 22.8109 0.518329L2.16471 11.5197C0.83138 12.2312 0 13.5784 0 15.0015V34.9609C0 36.4032 0.83138 37.7312 2.16471 38.4428L7.58464 41.3274C10.2096 42.5197 11.1457 42.518 12.3332 42.518C16.229 42.518 18.457 40.3453 18.457 36.576V15.9818C18.457 15.6741 18.1881 15.4222 17.8548 15.4222H15.2506C14.8965 15.4222 14.6444 15.6741 14.6444 15.9818V36.5572C14.6444 38.2495 12.7508 39.9029 9.68831 38.4991L4.02018 35.4793C3.81185 35.3831 3.68652 35.1725 3.68652 34.9609V15.0203C3.68652 14.7895 3.81185 14.5948 4.02018 14.4794L24.6663 3.48182C24.8538 3.36644 25.105 3.36644 25.3133 3.48182L45.9595 14.4794C46.1678 14.5948 46.2931 14.79 46.2931 15.0015V34.9609C46.2931 35.1725 46.1673 35.3831 45.9798 35.4793L25.3133 46.4994C25.1258 46.5956 24.8538 46.5956 24.6663 46.4994L19.3522 43.596C19.2064 43.4998 19.0016 43.4815 18.8558 43.5584C17.3766 44.3277 17.1058 44.4232 15.7308 44.8655C15.3975 44.9617 14.8763 45.1534 15.918 45.6919L22.8109 49.4629C23.4775 49.809 24.2297 50 24.9797 50C25.7505 50 26.498 49.809 27.1647 49.4629L47.8353 38.4428C49.1686 37.7312 50 36.4032 50 34.9609V15.0203C50 13.578 49.1686 12.25 47.8353 11.5385L27.1647 0.518329C26.5085 0.172176 25.7482 0 24.9878 0ZM30.542 15.3959C24.6462 15.3959 21.1263 17.7021 21.1263 21.5482C21.1263 25.7213 24.623 26.8733 30.2897 27.3926C37.0605 28.008 37.5814 28.9337 37.5814 30.1645C37.5814 32.2799 35.7303 33.1843 31.3761 33.1843C25.897 33.1843 24.6878 31.9133 24.292 29.4133C24.2503 29.1441 24.0018 28.9513 23.7101 28.9513H21.0205C20.6872 28.9513 20.4386 29.2037 20.4386 29.4922C20.4386 32.7037 22.3345 36.5272 31.3761 36.5272C37.9178 36.5272 41.6667 34.1456 41.6667 29.9917C41.6667 25.8764 38.6453 24.7781 32.312 23.9896C25.8745 23.2204 25.2279 22.8164 25.2279 21.4318C25.2279 20.2779 25.792 18.7613 30.542 18.7613C34.7712 18.7613 36.3537 19.6047 36.9995 22.2393C37.062 22.4893 37.2897 22.6825 37.5814 22.6825H40.271C40.4377 22.6825 40.5814 22.6064 40.7064 22.491C40.8105 22.3948 40.8737 22.2396 40.8529 22.0666C40.4362 17.5281 37.167 15.3959 30.542 15.3959Z" fill="black"/>
</g>
<defs>
<clipPath id="clip0_32_155">
<rect width="50" height="50" fill="white"/>
</clipPath>
</defs>
</svg>
