<svg width="50" height="50" viewBox="0 0 50 50" fill="none" xmlns="http://www.w3.org/2000/svg">
<g clip-path="url(#clip0_32_126)">
<path d="M28.1812 0.204633C14.4859 -1.54537 1.96088 8.12182 0.204633 21.8187C-1.54537 35.514 8.12182 48.039 21.8187 49.7953C35.514 51.5453 48.039 41.8781 49.7874 28.1812C51.5453 14.4859 41.8796 1.96088 28.1812 0.204633ZM33.3249 15.8046C32.8609 15.8046 32.4203 15.9921 32.0953 16.3249L22.8187 25.5937L22.1765 24.9578L20.8406 23.6156C29.9796 14.5015 31.6328 14.4109 33.3234 15.8031L33.3249 15.8046ZM23.2015 25.9265L32.4453 16.6749C32.5671 16.548 32.7134 16.4471 32.8754 16.3785C33.0374 16.3098 33.2116 16.2748 33.3876 16.2755C33.5635 16.2762 33.7374 16.3127 33.8989 16.3827C34.0603 16.4527 34.2058 16.5548 34.3265 16.6828C34.4464 16.8108 34.539 16.9619 34.5984 17.1269C34.6579 17.292 34.6831 17.4674 34.6724 17.6425C34.6617 17.8176 34.6154 17.9886 34.5363 18.1452C34.4572 18.3018 34.347 18.4406 34.2124 18.5531L24.4234 27.1468L23.2015 25.9265ZM23.8859 27.3765L21.5906 27.8718C21.5628 27.8756 21.5346 27.8706 21.5099 27.8574C21.4852 27.8442 21.4653 27.8236 21.4531 27.7984C21.4405 27.7743 21.4362 27.7468 21.4407 27.72C21.4452 27.6932 21.4583 27.6686 21.4781 27.6499L22.8203 26.3078L23.8859 27.3765ZM18.0421 26.4171L20.4921 23.9749L22.3234 25.8062L18.1968 26.6921C18.1621 26.7013 18.1253 26.6982 18.0925 26.6834C18.0598 26.6686 18.0332 26.643 18.0171 26.6109C17.9992 26.5804 17.9919 26.5448 17.9965 26.5097C18.001 26.4747 18.0171 26.4421 18.0421 26.4171ZM10.4499 39.0374C10.3609 39.0296 10.2937 38.9484 10.3015 38.8671C10.3081 38.8301 10.3255 38.7959 10.3515 38.7687H10.3593L12.3281 36.7999L14.8765 39.3484L10.4499 39.0374ZM15.5015 36.4171C15.4079 36.468 15.3334 36.548 15.2894 36.645C15.2454 36.742 15.2343 36.8507 15.2578 36.9546L15.6812 38.7546C15.7484 39.0156 15.4296 39.1921 15.2421 38.9984H15.2343L12.6796 36.4421L20.5171 28.6124L24.3093 27.7921L26.1234 29.6156C23.5109 31.9093 19.9374 34.1968 15.5031 36.4171H15.5015ZM26.4984 29.2812L24.7484 27.5312L34.5374 18.9374C34.6265 18.8562 34.7078 18.7671 34.7812 18.6765C34.4812 21.4765 30.5578 25.4312 26.4984 29.2812ZM34.1234 15.8203H34.1156C30.7046 12.3937 35.5234 7.12807 39.2343 10.2203L35.8828 13.5828C35.8593 13.6061 35.8407 13.6339 35.828 13.6645C35.8154 13.695 35.8088 13.7278 35.8088 13.7609C35.8088 13.794 35.8154 13.8267 35.828 13.8573C35.8407 13.8879 35.8593 13.9156 35.8828 13.939L38.4781 16.5374C37.7686 16.8894 36.9665 17.0095 36.1851 16.8808C35.4037 16.7521 34.6825 16.3811 34.1234 15.8203ZM39.4859 15.8203C39.3159 15.9917 39.1278 16.1441 38.9249 16.2749L36.4109 13.7609L39.5999 10.5624C40.264 11.2837 40.6231 12.2341 40.6018 13.2143C40.5805 14.1945 40.1806 15.1284 39.4859 15.8203ZM39.2812 12.6062C39.231 12.642 39.1932 12.6925 39.1731 12.7507C39.1529 12.809 39.1514 12.872 39.1687 12.9312C39.2444 13.0805 39.2747 13.2487 39.2558 13.4151C39.2369 13.5814 39.1697 13.7386 39.0624 13.8671C39.0377 13.8972 39.0193 13.9319 39.0083 13.9693C38.9973 14.0066 38.994 14.0458 38.9985 14.0845C39.003 14.1231 39.0153 14.1605 39.0346 14.1943C39.0539 14.2281 39.0799 14.2577 39.1109 14.2812C39.1607 14.3169 39.22 14.337 39.2812 14.339C39.3703 14.339 39.4546 14.3062 39.5015 14.2406C39.6809 14.0248 39.794 13.7617 39.8273 13.4831C39.8606 13.2045 39.8125 12.9222 39.689 12.6703C39.6667 12.639 39.6383 12.6124 39.6056 12.5922C39.5729 12.572 39.5365 12.5585 39.4986 12.5526C39.4606 12.5466 39.4218 12.5483 39.3845 12.5575C39.3472 12.5667 39.312 12.5833 39.2812 12.6062Z" fill="black"/>
</g>
<defs>
<clipPath id="clip0_32_126">
<rect width="50" height="50" fill="white"/>
</clipPath>
</defs>
</svg>
