<svg width="50" height="50" viewBox="0 0 50 50" fill="none" xmlns="http://www.w3.org/2000/svg">
<path d="M39.825 41.6667C39.825 39.4501 39.825 37.4167 39.4875 33.0855C39.0709 28.7313 36.8021 26.5272 32.925 25.7522C37.5188 25.1563 40.9188 21.5772 40.9188 16.0917C40.9167 8.75841 36.0834 4.16675 26.3667 4.16675H8.33337V11.8105H24.5771C28.8709 11.8105 31.0188 13.6522 31.0188 16.6938C31.0188 20.1522 28.873 21.4584 24.5771 21.4584H8.33337V29.2709H24.1C27.5 29.2709 29.35 30.223 29.6459 34.5167C29.8108 36.4377 29.8679 38.3665 29.8167 40.2938V40.3001C29.8084 40.7459 29.8 41.1855 29.8 41.6667H39.825ZM8.33337 35.8438V41.6667H21.0875V37.9376C21.0875 37.1563 20.7042 35.8438 18.9334 35.8438H8.33337Z" fill="black"/>
</svg>
