<svg width="50" height="50" viewBox="0 0 50 50" fill="none" xmlns="http://www.w3.org/2000/svg">
<g clip-path="url(#clip0_32_132)">
<path d="M48.7396 14.752C47.7229 14.3208 46.5458 14.7478 46.0521 15.7353C45.5854 16.6687 44.9625 17.2416 44.1479 17.4812C42.8729 17.8624 41.35 17.3728 40.6375 16.9541C39.6979 16.402 38.6083 15.5645 37.4562 14.6791C33.7792 11.8499 29.2042 8.33325 22.9167 8.33325C17.8875 8.33325 15.3042 10.9145 11.0271 15.1937C10.2125 16.0083 10.2062 17.3333 11.0208 18.1458C11.8125 18.9416 13.0833 18.9666 13.9 18.2083C13.9208 18.1895 13.9417 18.1687 13.9625 18.1499C15.1125 17.2624 22.3583 18.1249 25.525 20.6416C30.2312 24.3812 33.6292 27.0833 37.5 27.0833C43.0396 27.0833 47.6646 23.4562 49.875 17.3791C50.2521 16.3416 49.7542 15.1895 48.7396 14.752ZM38.3229 29.3353C37.3062 28.9041 36.1292 29.3312 35.6354 30.3187C35.1687 31.252 34.5458 31.8249 33.7312 32.0645C32.4562 32.4395 30.9333 31.9562 30.2208 31.5374C29.2812 30.9853 28.1917 30.1478 27.0396 29.2624C23.3625 26.4333 18.7875 22.9166 12.5 22.9166C7.47083 22.9166 4.88749 25.4978 0.610409 29.777C-0.204174 30.5916 -0.210424 31.9166 0.604159 32.7291C1.39583 33.5249 2.66874 33.552 3.48541 32.7916C3.50624 32.7728 3.52708 32.752 3.54791 32.7333C4.69583 31.8458 11.9458 32.7083 15.1104 35.2249C19.8146 38.9645 23.2125 41.6666 27.0833 41.6666C32.6229 41.6666 37.2479 38.0395 39.4583 31.9624C39.8354 30.9249 39.3375 29.7728 38.3229 29.3353Z" fill="black"/>
</g>
<defs>
<clipPath id="clip0_32_132">
<rect width="50" height="50" fill="white"/>
</clipPath>
</defs>
</svg>
